<svg xmlns="http://www.w3.org/2000/svg" version="1.1" xmlns:xlink="http://www.w3.org/1999/xlink" xmlns:svgjs="http://svgjs.dev/svgjs" viewBox="0 0 17.272146113172287 13.120491898015906"><g transform="matrix(1,0,0,1,1.252117881298057,10.594496016717848)"><g><path d=" M 1.2474855 1.0257885 Q 1.0680165 1.1947005 0.8216865 1.1947005 Q 0.6844455 1.1947005 0.5788755 1.147194 Q 0.4733055 1.0996875 0.4029255 1.02051 Q 0.3325455 0.9413325 0.29647575 0.837522 Q 0.260406 0.7337115 0.260406 0.6211035 Q 0.260406 0.5014575 0.29823525 0.40204575 Q 0.3360645 0.30263399999999996 0.404685 0.23049450000000005 Q 0.4733055 0.15835500000000002 0.56743875 0.1178865 Q 0.661572 0.07741799999999999 0.7724205 0.07741799999999999 Q 0.848079 0.07741799999999999 0.91054125 0.09501300000000001 Q 0.9730035 0.11260800000000004 1.02138975 0.14076 Q 1.069776 0.16891199999999995 1.10056725 0.20498174999999996 Q 1.1313585 0.24105149999999997 1.143675 0.27800099999999994 L 1.273878 0.27800099999999994 Q 1.2474855 0.21817799999999998 1.20613725 0.16715250000000004 Q 1.164789 0.11612700000000009 1.1032065 0.0791774999999999 Q 1.041624 0.04222799999999993 0.9589275 0.021114000000000077 Q 0.876231 0 0.770661 0 Q 0.6175845 0 0.49178025 0.04398750000000007 Q 0.365976 0.08797499999999991 0.2762415 0.1697917499999999 Q 0.186507 0.2516084999999999 0.137241 0.36685575000000004 Q 0.087975 0.48210299999999995 0.087975 0.6246225 Q 0.087975 0.7477874999999999 0.12756375 0.86479425 Q 0.1671525 0.9818009999999999 0.249849 1.07241525 Q 0.3325455 1.1630295 0.460989 1.21845375 Q 0.5894325 1.273878 0.767142 1.273878 Q 0.87975 1.273878 0.96860475 1.252764 Q 1.0574595 1.23165 1.12344075 1.20085875 Q 1.189422 1.1700675 1.2334095 1.1348775 Q 1.277397 1.0996875 1.3002705 1.0732949999999999 L 1.2474855 1.0257885 M 2.2662398145410156 0.890307 L 2.435151814541016 1.252764 L 2.6058233145410155 1.252764 L 2.032226314541016 0.021114000000000077 L 1.9442513145410159 0.021114000000000077 L 1.4234393145410158 1.252764 L 1.5043763145410156 1.252764 L 1.6592123145410156 0.890307 L 2.2662398145410156 0.890307 M 2.2292903145410157 0.8111295000000001 L 1.6926428145410157 0.8111295000000001 L 1.9460108145410158 0.21817799999999998 L 1.9530488145410159 0.21817799999999998 L 2.2292903145410157 0.8111295000000001 M 3.9413271491015625 1.0257885 Q 3.7618581491015624 1.1947005 3.515528149101563 1.1947005 Q 3.3782871491015625 1.1947005 3.2727171491015628 1.147194 Q 3.1671471491015626 1.0996875 3.0967671491015625 1.02051 Q 3.026387149101563 0.9413325 2.9903173991015626 0.837522 Q 2.954247649101563 0.7337115 2.954247649101563 0.6211035 Q 2.954247649101563 0.5014575 2.9920768991015625 0.40204575 Q 3.0299061491015626 0.30263399999999996 3.098526649101563 0.23049450000000005 Q 3.1671471491015626 0.15835500000000002 3.2612803991015626 0.1178865 Q 3.3554136491015627 0.07741799999999999 3.4662621491015626 0.07741799999999999 Q 3.541920649101563 0.07741799999999999 3.6043828991015627 0.09501300000000001 Q 3.6668451491015626 0.11260800000000004 3.7152313991015626 0.14076 Q 3.7636176491015627 0.16891199999999995 3.7944088991015628 0.20498174999999996 Q 3.825200149101563 0.24105149999999997 3.8375166491015626 0.27800099999999994 L 3.9677196491015625 0.27800099999999994 Q 3.9413271491015625 0.21817799999999998 3.899978899101563 0.16715250000000004 Q 3.8586306491015625 0.11612700000000009 3.7970481491015624 0.0791774999999999 Q 3.7354656491015628 0.04222799999999993 3.652769149101563 0.021114000000000077 Q 3.5700726491015624 0 3.4645026491015627 0 Q 3.3114261491015626 0 3.185621899101563 0.04398750000000007 Q 3.0598176491015625 0.08797499999999991 2.9700831491015625 0.1697917499999999 Q 2.880348649101563 0.2516084999999999 2.8310826491015626 0.36685575000000004 Q 2.781816649101563 0.48210299999999995 2.781816649101563 0.6246225 Q 2.781816649101563 0.7477874999999999 2.821405399101563 0.86479425 Q 2.8609941491015625 0.9818009999999999 2.943690649101563 1.07241525 Q 3.026387149101563 1.1630295 3.1548306491015627 1.21845375 Q 3.2832741491015627 1.273878 3.4609836491015624 1.273878 Q 3.5735916491015627 1.273878 3.6624463991015626 1.252764 Q 3.751301149101563 1.23165 3.817282399101563 1.20085875 Q 3.8832636491015626 1.1700675 3.9272511491015627 1.1348775 Q 3.9712386491015623 1.0996875 3.9941121491015625 1.0732949999999999 L 3.9413271491015625 1.0257885 M 4.731346463642578 1.252764 L 4.731346463642578 0.1178865 L 5.202892463642578 0.1178865 L 5.202892463642578 0.021114000000000077 L 4.099685963642578 0.021114000000000077 L 4.099685963642578 0.1178865 L 4.571231963642578 0.1178865 L 4.571231963642578 1.252764 L 4.731346463642578 1.252764 M 5.5548315025488275 0.021114000000000077 L 5.5548315025488275 1.252764 L 5.714946002548828 1.252764 L 5.714946002548828 0.021114000000000077 L 5.5548315025488275 0.021114000000000077 M 7.279213188427734 1.0257885 Q 7.099744188427734 1.1947005 6.853414188427735 1.1947005 Q 6.716173188427734 1.1947005 6.610603188427734 1.147194 Q 6.505033188427735 1.0996875 6.434653188427735 1.02051 Q 6.364273188427735 0.9413325 6.328203438427734 0.837522 Q 6.292133688427734 0.7337115 6.292133688427734 0.6211035 Q 6.292133688427734 0.5014575 6.329962938427735 0.40204575 Q 6.367792188427734 0.30263399999999996 6.436412688427734 0.23049450000000005 Q 6.505033188427735 0.15835500000000002 6.599166438427734 0.1178865 Q 6.693299688427734 0.07741799999999999 6.804148188427734 0.07741799999999999 Q 6.879806688427735 0.07741799999999999 6.942268938427734 0.09501300000000001 Q 7.004731188427734 0.11260800000000004 7.053117438427734 0.14076 Q 7.1015036884277345 0.16891199999999995 7.1322949384277345 0.20498174999999996 Q 7.163086188427735 0.24105149999999997 7.175402688427734 0.27800099999999994 L 7.305605688427734 0.27800099999999994 Q 7.279213188427734 0.21817799999999998 7.237864938427735 0.16715250000000004 Q 7.196516688427734 0.11612700000000009 7.134934188427734 0.0791774999999999 Q 7.073351688427735 0.04222799999999993 6.990655188427734 0.021114000000000077 Q 6.907958688427734 0 6.802388688427735 0 Q 6.649312188427734 0 6.523507938427734 0.04398750000000007 Q 6.397703688427734 0.08797499999999991 6.307969188427735 0.1697917499999999 Q 6.218234688427734 0.2516084999999999 6.168968688427735 0.36685575000000004 Q 6.119702688427735 0.48210299999999995 6.119702688427735 0.6246225 Q 6.119702688427735 0.7477874999999999 6.159291438427735 0.86479425 Q 6.198880188427735 0.9818009999999999 6.281576688427735 1.07241525 Q 6.364273188427735 1.1630295 6.492716688427734 1.21845375 Q 6.6211601884277345 1.273878 6.798869688427734 1.273878 Q 6.911477688427734 1.273878 7.000332438427734 1.252764 Q 7.089187188427735 1.23165 7.155168438427735 1.20085875 Q 7.221149688427735 1.1700675 7.265137188427735 1.1348775 Q 7.309124688427734 1.0996875 7.331998188427734 1.0732949999999999 L 7.279213188427734 1.0257885 M 7.61352200296875 0.021114000000000077 L 7.61352200296875 1.252764 L 7.77363650296875 1.252764 L 7.77363650296875 0.7090785 L 7.85105450296875 0.7090785 Q 7.90032050296875 0.7090785 7.93287125296875 0.717876 Q 7.96542200296875 0.7266735 7.99181450296875 0.7477874999999999 Q 8.018207002968749 0.7689015 8.04108050296875 0.802332 Q 8.06395400296875 0.8357625 8.09562500296875 0.8850285 L 8.23462550296875 1.09089 Q 8.26101800296875 1.1313585 8.28653075296875 1.164789 Q 8.31204350296875 1.1982195 8.34195500296875 1.22197275 Q 8.37186650296875 1.2457259999999999 8.40969575296875 1.259802 Q 8.44752500296875 1.273878 8.50031000296875 1.273878 Q 8.53901900296875 1.273878 8.56365200296875 1.270359 Q 8.58828500296875 1.26684 8.61291800296875 1.252764 L 8.61291800296875 1.1876625 Q 8.60412050296875 1.189422 8.59532300296875 1.19030175 Q 8.58652550296875 1.1911815 8.57772800296875 1.1911815 Q 8.54077850296875 1.1911815 8.51262650296875 1.1806245 Q 8.48447450296875 1.1700675 8.45984150296875 1.14983325 Q 8.43520850296875 1.129599 8.41233500296875 1.10056725 Q 8.38946150296875 1.0715355 8.36482850296875 1.034586 Q 8.29092950296875 0.9272564999999999 8.25046100296875 0.86303475 Q 8.209992502968749 0.798813 8.18623925296875 0.7636229999999999 Q 8.16248600296875 0.728433 8.14753025296875 0.7125975 Q 8.13257450296875 0.696762 8.11146050296875 0.686205 L 8.09386550296875 0.6774074999999999 L 8.09386550296875 0.6703695 Q 8.17832150296875 0.665091 8.23902425296875 0.63342 Q 8.29972700296875 0.601749 8.33843600296875 0.5542425 Q 8.37714500296875 0.506736 8.39474000296875 0.45131175 Q 8.41233500296875 0.39588749999999995 8.41233500296875 0.3431025 Q 8.41233500296875 0.29559599999999997 8.39386025296875 0.23929200000000006 Q 8.37538550296875 0.18298799999999993 8.33051825296875 0.13460175000000008 Q 8.28565100296875 0.0862155 8.20823300296875 0.05366475000000004 Q 8.13081500296875 0.021114000000000077 8.01292850296875 0.021114000000000077 L 7.61352200296875 0.021114000000000077 M 7.77363650296875 0.09853200000000006 L 7.95134600296875 0.09853200000000006 Q 8.018207002968749 0.09853200000000006 8.07187175296875 0.1178865 Q 8.12553650296875 0.13724099999999995 8.16424550296875 0.17155125000000004 Q 8.20295450296875 0.20586149999999992 8.223188752968749 0.25336800000000004 Q 8.24342300296875 0.30087450000000004 8.24342300296875 0.35717849999999995 Q 8.24342300296875 0.40468499999999996 8.22494825296875 0.45307125000000004 Q 8.20647350296875 0.5014575 8.16952400296875 0.54104625 Q 8.13257450296875 0.580635 8.07890975296875 0.605268 Q 8.02524500296875 0.629901 7.9548650029687495 0.629901 L 7.77363650296875 0.629901 L 7.77363650296875 0.09853200000000006 M 9.596562216679686 0.890307 L 9.765474216679687 1.252764 L 9.936145716679686 1.252764 L 9.362548716679687 0.021114000000000077 L 9.274573716679686 0.021114000000000077 L 8.753761716679687 1.252764 L 8.834698716679688 1.252764 L 8.989534716679687 0.890307 L 9.596562216679686 0.890307 M 9.559612716679688 0.8111295000000001 L 9.022965216679687 0.8111295000000001 L 9.276333216679687 0.21817799999999998 L 9.283371216679686 0.21817799999999998 L 9.559612716679688 0.8111295000000001 M 10.235304051240234 0.021114000000000077 L 10.235304051240234 1.252764 L 10.395418551240233 1.252764 L 10.395418551240233 0.640458 L 10.940863551240234 0.640458 L 10.940863551240234 0.5595209999999999 L 10.395418551240233 0.5595209999999999 L 10.395418551240233 0.1178865 L 11.030598051240235 0.1178865 L 11.030598051240235 0.021114000000000077 L 10.235304051240234 0.021114000000000077 M 11.785458294492187 1.252764 L 11.785458294492187 0.1178865 L 12.257004294492187 0.1178865 L 12.257004294492187 0.021114000000000077 L 11.153797794492187 0.021114000000000077 L 11.153797794492187 0.1178865 L 11.625343794492187 0.1178865 L 11.625343794492187 1.252764 L 11.785458294492187 1.252764 M 12.538563333398438 0.021114000000000077 L 12.538563333398438 1.252764 L 13.333857333398438 1.252764 L 13.333857333398438 1.1559915 L 12.698677833398436 1.1559915 L 12.698677833398436 0.640458 L 13.244122833398437 0.640458 L 13.244122833398437 0.5595209999999999 L 12.698677833398436 0.5595209999999999 L 12.698677833398436 0.1178865 L 13.333857333398438 0.1178865 L 13.333857333398438 0.021114000000000077 L 12.538563333398438 0.021114000000000077 M 13.65060207665039 1.252764 L 13.65060207665039 0.021114000000000077 L 14.055287076650389 0.021114000000000077 Q 14.20132557665039 0.021114000000000077 14.32273107665039 0.06774075000000002 Q 14.44413657665039 0.11436749999999996 14.531231826650389 0.19618424999999995 Q 14.61832707665039 0.27800099999999994 14.66671332665039 0.390609 Q 14.71509957665039 0.503217 14.71509957665039 0.63342 Q 14.71509957665039 0.7689015 14.66495382665039 0.88238925 Q 14.61480807665039 0.995877 14.52771282665039 1.0785735 Q 14.44061757665039 1.16127 14.32449057665039 1.207017 Q 14.20836357665039 1.252764 14.07640107665039 1.252764 L 13.65060207665039 1.252764 M 13.810716576650389 1.175346 L 14.00426157665039 1.175346 Q 14.14854057665039 1.175346 14.24971182665039 1.12695975 Q 14.35088307665039 1.0785735 14.41598457665039 1.0011554999999999 Q 14.48108607665039 0.9237375 14.51099757665039 0.8278447499999999 Q 14.54090907665039 0.7319519999999999 14.54090907665039 0.636939 Q 14.54090907665039 0.531369 14.50571907665039 0.43371675 Q 14.47052907665039 0.3360645 14.40278832665039 0.26128575 Q 14.335047576650389 0.18650699999999998 14.23475607665039 0.1425194999999999 Q 14.13446457665039 0.09853200000000006 14.00426157665039 0.09853200000000006 L 13.810716576650389 0.09853200000000006 L 13.810716576650389 1.175346" fill="#114b1e" fill-rule="nonzero"></path></g><g></g><g clip-path="url(#SvgjsClipPath1002)"><g clip-path="url(#SvgjsClipPath1000d0aa5507-c488-4cd7-aa88-133f975ea774)"><path d=" M 3.39884872374322 -4.036025954512888 C 3.4313804834797783 -3.9627177447859285 3.4441945201393698 -3.9481157030110463 3.476279278597098 -3.9481157030110463 C 3.4973876723192916 -3.9481157030110463 3.5146717217671175 -3.9530823838868567 3.5146717217671175 -3.9595390690254106 C 3.5146717217671175 -3.9659957541639645 3.49694067104048 -4.0241059204109435 3.4751866088044285 -4.089417773927848 C 3.4375391677657863 -4.202608431087563 3.4336651566826553 -4.20792277962468 3.389263029652911 -4.20792277962468 C 3.3466489077384587 -4.20792277962468 3.3434702319779404 -4.204396436202854 3.3512679209529574 -4.165904659415324 C 3.363736713944989 -4.121443570425726 3.37964496133694 -4.078019700979023 3.3988487237432294 -4.0360259545128905 Z" fill="#114b1e" transform="matrix(1,0,0,1,0,0)" fill-rule="nonzero"></path></g><g clip-path="url(#SvgjsClipPath1000d0aa5507-c488-4cd7-aa88-133f975ea774)"><path d=" M 3.347294576252308 -3.1306000308526807 C 3.3434702319779404 -3.122156673363804 3.3778396636385457 -3.0968762677059294 3.423682128122271 -3.074228202912235 C 3.519539069025409 -3.027044734592038 3.5910592736370806 -3.0188497111469514 3.5910592736370806 -3.0550071479228498 C 3.5910592736370806 -3.1030349519919342 3.366366630815426 -3.172667817870794 3.347294576252308 -3.1306000308526807 Z" fill="#114b1e" transform="matrix(1,0,0,1,0,0)" fill-rule="nonzero"></path></g><g clip-path="url(#SvgjsClipPath1000d0aa5507-c488-4cd7-aa88-133f975ea774)"><path d=" M 3.6677448263595913 -4.544117408108275 C 3.626819375942912 -4.544117408108275 3.5628981930712382 -4.4241223981487 3.5932446132224385 -4.404702675924282 C 3.630941721069836 -4.380862607720393 3.658755133974367 -4.397500988654357 3.6815521991943427 -4.457548160442903 C 3.7056902682507804 -4.520227673095628 3.7018162571676494 -4.544117408108275 3.6677448263595913 -4.544117408108275 Z" fill="#114b1e" transform="matrix(1,0,0,1,0,0)" fill-rule="nonzero"></path></g><g clip-path="url(#SvgjsClipPath1000d0aa5507-c488-4cd7-aa88-133f975ea774)"><path d=" M 3.747708388460129 -4.110476500841283 C 3.8005941096646993 -4.098806688809737 3.855722026327006 -4.115780730888453 3.892884470460067 -4.155176628723576 C 3.971060027445322 -4.244030549591821 3.8995398228336504 -4.269757956528519 3.7927561840037316 -4.191234731881958 C 3.72565632537154 -4.1420149244026785 3.7158222972374384 -4.1242838736760365 3.747708388460129 -4.110476500841283 Z" fill="#114b1e" transform="matrix(1,0,0,1,0,0)" fill-rule="nonzero"></path></g><g clip-path="url(#SvgjsClipPath1000d0aa5507-c488-4cd7-aa88-133f975ea774)"><path d=" M 3.7885841720680533 -2.848840224767966 C 3.7630997572153513 -2.8296162355605396 3.7363518203990744 -2.812127199949896 3.7085212763499964 -2.796491408336929 C 3.695707239690396 -2.791226726608568 3.6970482435268672 -2.7843727069999495 3.713487957225807 -2.7728500073680697 C 3.7426423739668095 -2.7522879485422154 3.7537677391286275 -2.7523376153509735 3.7946931895452973 -2.7733466754556515 C 3.841850036218209 -2.799503687161404 3.8820981806276884 -2.8365169976293423 3.9121055254494586 -2.8813223176957665 C 3.9119565250231756 -2.908390728468931 3.847340006828889 -2.8915040134911756 3.7885841720680533 -2.848840224767966 Z" fill="#114b1e" transform="matrix(1,0,0,1,0,0)" fill-rule="nonzero"></path></g><g clip-path="url(#SvgjsClipPath1000d0aa5507-c488-4cd7-aa88-133f975ea774)"><path d=" M 6.21177810456711 -7.503116873489743 C 6.041262217419159 -7.53024127446386 5.867980749966292 -7.535482112527836 5.696137296040495 -7.518712251439787 C 5.6407588042752055 -7.507686219895488 5.639368133629979 -7.508381555218102 5.652678838377156 -7.543545655818838 C 5.667292537181126 -7.590359458664713 5.6734645341611465 -7.639399085895621 5.670906557191378 -7.688374070157464 C 5.668373549944708 -7.718422489456117 5.594568672130169 -7.71072413409861 5.54470319613703 -7.675262032645326 C 5.519869791757979 -7.657530981918683 5.496774725685466 -7.645461947390464 5.493546383116193 -7.648938624003531 C 5.49215097699756 -7.671451435872373 5.494912114136853 -7.694028782846662 5.501691739752522 -7.715541814548146 C 5.520399778066567 -7.849885251862254 5.518540797411762 -7.986294237749108 5.496178723980362 -8.12007797188289 C 5.481278681352941 -8.17793980408608 5.471792320880142 -8.189611504144233 5.437124888366989 -8.19363451565364 C 5.400272116268479 -8.19785619439808 5.394957767731357 -8.192293511817171 5.385769408111105 -8.140143362621163 C 5.345638626634567 -7.911676042333893 5.262595722391011 -7.604834497826337 5.245460673369468 -7.621969546847882 C 5.233199600834908 -7.658471623637536 5.2240937211972724 -7.6959586025837 5.218243262170031 -7.734017867406162 C 5.195232148982385 -7.858415083018333 5.148435026193826 -7.977203887675154 5.080417867866299 -8.083870868298234 C 5.063531483534499 -8.114417787778235 5.031904352640244 -8.133913964356886 4.99702729596145 -8.13527601536287 C 4.979227430176756 -8.137134428345723 4.961309258890032 -8.133104148338678 4.946019483366877 -8.123802982539749 C 4.9461646183025065 -8.08378958772554 4.951541095216798 -8.043966924866554 4.962012195786986 -8.00534764365166 C 4.979594246087351 -7.92275174068695 4.982772921847869 -7.83926183516458 4.97572023500422 -7.638607927781846 C 4.97345819685858 -7.528720820861802 4.965167932570947 -7.419040624336303 4.950886830625178 -7.310061987847063 C 4.942344139518775 -7.2722158795733245 4.932063110105843 -7.2267210827509025 4.928089765405202 -7.208940365215502 C 4.9222787487805055 -7.183461292322596 4.905292700185235 -7.17417359908483 4.847977202878381 -7.166524910536083 C 4.792969299804936 -7.156738237151994 4.739124135120978 -7.141275437154652 4.687305076545909 -7.1203844451998055 L 4.599444491852836 -7.084276675232665 L 4.597904820781336 -7.1704485884279725 C 4.595669814387223 -7.297992953318779 4.582557776875085 -7.332163717744354 4.533884304292143 -7.337825733942777 C 4.495144193460822 -7.342395080348523 4.492462185787889 -7.33881907011794 4.492462185787889 -7.283192244308865 C 4.494276153905611 -7.233739092554478 4.499721047932576 -7.184486042011716 4.508752899060545 -7.135830822723576 L 4.525043612333202 -7.047721903986702 L 4.419451976913472 -6.945805612415075 C 4.364564075261793 -6.893325402858956 4.313383690645788 -6.837099999785339 4.266279538703498 -6.777534464342624 C 4.21234138439219 -6.7022892490740995 4.219046403574528 -6.693895558393979 4.182938633607395 -6.8818347627346395 C 4.16898226034637 -6.954695971182776 4.156863559009392 -6.982360383661039 4.137145835932425 -6.986135061126655 C 4.103968407682008 -6.992492412647692 4.103372405976914 -6.960953989086297 4.132874490379227 -6.755035399975204 L 4.154280884953968 -6.605140971143252 L 4.09572371742817 -6.484102958199756 C 4.063539625352914 -6.417549434463899 4.029716528588648 -6.341559217064002 4.020528168968395 -6.315235808422207 C 4.010594807216775 -6.286230392107475 3.9962907662944387 -6.270535680539916 3.9845693994275266 -6.275502361415725 C 3.973990369162057 -6.280022041012713 3.9299359097936146 -6.2989947619583075 3.886775452982823 -6.31776881566887 C 3.8122752398456705 -6.35000257455288 3.7461687173886387 -6.349555573274056 3.7662837749356624 -6.317023813537499 C 3.800119472517954 -6.289617871015778 3.836743159987069 -6.2658457684221895 3.8755507542034953 -6.246099610630929 C 3.959586994622202 -6.1991148095457635 3.974040035970803 -6.185108769475979 3.966788681892125 -6.157891358276538 C 3.9618220010163148 -6.140110640741138 3.939521603883933 -6.044601367499307 3.9167742054727213 -5.9457644180706835 L 3.8754017537772216 -5.765871236748836 L 3.820619263717027 -5.8198093910601365 C 3.764346769394097 -5.874740881546598 3.737526692664726 -5.883531906696781 3.699481917156018 -5.859542838066618 C 3.6826448689870217 -5.848814807374868 3.6970482435268766 -5.825868741728625 3.765787106848087 -5.7538022022206174 L 3.8535483579236605 -5.661670271974337 L 3.8374563118860325 -5.496428799236131 C 3.8285659531183365 -5.405488872400046 3.81679491944266 -5.2224170153176805 3.811331570479274 -5.089558301889756 C 3.802888212990399 -4.886818388539182 3.7977228648795602 -4.849369614735573 3.779048144786508 -4.85652163519674 C 3.7386617877399293 -4.863467919606841 3.697678616308051 -4.866329919398267 3.65671879481531 -4.865064326303133 L 3.5567395087852485 -4.865064326303133 L 3.566672870536869 -4.914731135061236 C 3.5722355531177734 -4.942047879878192 3.580927244650441 -5.016647426632862 3.585943592335015 -5.08056860950454 C 3.5958769540866355 -5.202947626284504 3.585943592335015 -5.22658902725336 3.5322537720674996 -5.209702312275605 C 3.510996377919033 -5.202947626284504 3.4982816748769605 -5.169174196328994 3.478762619035031 -5.067307571566126 C 3.466378922835597 -5.006940546631631 3.457884972998449 -4.945840512939768 3.453333212950886 -4.884384714910035 C 3.453333212950886 -4.8417705929955845 3.4455851907846236 -4.831688230817689 3.396911718201682 -4.8113248392268675 C 3.374376068354003 -4.800045264710528 3.3495489059945434 -4.794097621434819 3.3243485106060953 -4.793941456161532 C 3.2620756102273676 -4.8759698285722335 3.2097893334848053 -4.965119931168677 3.168593398340688 -5.059509882591105 C 3.163130049377293 -5.080469275887023 3.17589441922813 -5.094723650000599 3.2178628726287237 -5.114789040738873 C 3.257049984738866 -5.133463760831919 3.26956602054591 -5.146675131961574 3.2585896558103653 -5.157701163505873 C 3.247613291074821 -5.168727195050172 3.2304782420532776 -5.165548519289653 3.203012496810048 -5.147767801754252 C 3.1858430741399717 -5.134588201448715 3.164463277566026 -5.128108940224407 3.142865991403987 -5.129540082940029 C 3.103689713039533 -5.188552659598213 3.0724775102062756 -5.252480060585757 3.050038725835093 -5.319664626866045 L 2.97762451866578 -5.501991481817038 L 3.1070562222893914 -5.729962134016729 C 3.1782287592397522 -5.855271492513422 3.241156605936275 -5.973925498636528 3.2470172893697264 -5.993543888095978 C 3.256155982181215 -6.024287642717244 3.252828305994423 -6.02831065422665 3.222730219887015 -6.024088975482211 C 3.196357144436465 -6.020264631207837 3.159951373616766 -5.9718891594774455 3.07228945615872 -5.824279403848365 C 3.035152784665547 -5.7562499826652544 2.9929144065172357 -5.691132483019947 2.945937094678099 -5.629486179899081 C 2.9011223956745216 -5.7330114629662 2.8663613717529377 -5.840604316434499 2.84213346437367 -5.950780765755253 C 2.862032840159063 -5.991063237626875 2.888183166206123 -6.027941902565038 2.9196136860363127 -6.060047745023078 C 2.9849752063619763 -6.135243293482844 2.9921272268231447 -6.149100333126356 2.9655058173287925 -6.149100333126356 C 2.930437673076067 -6.138973112912834 2.8985591801023904 -6.12000677776916 2.8729268858036914 -6.094019842213619 C 2.829468428140353 -6.054733396485961 2.8096513714458666 -6.04480003473434 2.804188022482472 -6.059600743744255 C 2.799916676929275 -6.071024109758618 2.7660439133562544 -6.18351943159572 2.728793806787678 -6.309573792223784 L 2.6611476132591374 -6.538786114642427 L 2.7401675059932793 -6.611498322664289 C 2.805231025466396 -6.671098493174011 2.8151643872180165 -6.686892538359088 2.796290999889936 -6.699458240974888 C 2.7525797538405574 -6.715276735924032 2.703677474460362 -6.704876093598195 2.6701869724531164 -6.672638164245512 C 2.6552869298256856 -6.659327459498341 2.6389962165530294 -6.6527714407422724 2.6337315348246717 -6.65803612247063 C 2.608168770753865 -6.7179983940500065 2.585998915806389 -6.779351021802937 2.5673270115150837 -6.841803314875609 C 2.537566339960753 -6.933927979044785 2.5025094144584283 -7.024256774319706 2.4623313778004574 -7.112338422180991 C 2.420462258017373 -7.1960766617471545 2.4169359145955527 -7.2116720396971985 2.4356603014973506 -7.232879767036907 C 2.4679137508125164 -7.280417517460904 2.491691238112746 -7.333181694226079 2.5059388358900696 -7.38883354653735 C 2.5059388358900696 -7.396233901042306 2.4855257774904898 -7.4022435849020365 2.46059303949392 -7.4022435849020365 C 2.4283053853408734 -7.402419203066156 2.3983674189867346 -7.385387490222465 2.3820201480385896 -7.357543457019744 L 2.348892386596946 -7.312843329137452 L 2.2734485040933885 -7.4022435849020365 C 2.2234507330646225 -7.459631298447997 2.1689593300796886 -7.512943521423195 2.1104917045580582 -7.561674041015545 L 2.0231774547613055 -7.6308102388068235 L 2.1140180479798785 -7.72408450565454 L 2.2049083080072065 -7.817557439737289 L 2.264508478516928 -7.797690716234047 C 2.30369559062707 -7.784777345956941 2.3290753299024605 -7.78323767488544 2.339008691654081 -7.793270370254577 C 2.3539087342815113 -7.808170412882008 2.3234133137040374 -7.829328473412959 2.2582007938046558 -7.850138866282604 C 2.2345593928357936 -7.857688221213836 2.2367447324211516 -7.866181245511471 2.277620516029067 -7.926774752196356 C 2.3029009216869474 -7.964273192808724 2.354951737265435 -8.05387211580834 2.3932945136266905 -8.125988322125105 L 2.462828045888033 -8.25700936362898 L 2.5303252389902906 -8.25700936362898 C 2.5674263451325934 -8.25700936362898 2.597822432092558 -8.263863383237597 2.597822432092558 -8.272306740726474 C 2.597822432092558 -8.280750098215352 2.5703070200405644 -8.287554451015211 2.5367322573200908 -8.287554451015211 C 2.467198725058749 -8.287554451015211 2.4681920612339088 -8.28502144376855 2.498687481811383 -8.385547064694947 C 2.542443940327269 -8.529580810093446 2.5185542053146235 -8.833740346928064 2.4531430181802047 -8.96704606163481 L 2.415892911611629 -9.042887278608433 L 2.461040040772741 -9.11629482195291 C 2.5144318601877003 -9.203112403662072 2.516666866581813 -9.219701117787277 2.4747480799899737 -9.219701117787277 C 2.444153325794981 -9.219701117787277 2.3533623993851718 -9.135267542898504 2.3533623993851718 -9.106957461906385 C 2.3533623993851718 -9.099159772931364 2.339604693359175 -9.105169456791094 2.322866978807698 -9.12041716707983 C 2.2892853922854655 -9.144129525671397 2.2522677026496094 -9.16255462006029 2.2131033314522894 -9.175050656713744 C 2.1398447885340897 -9.199884061092796 2.132245766794101 -9.20708574836272 2.1115347075419733 -9.271950600600801 C 2.0928599874489304 -9.330607101744121 2.082876958888546 -9.342179468184758 2.05104053447461 -9.342179468184758 C 2.0142374291848544 -9.342179468184758 2.0133930934359587 -9.339894794981886 2.024816459450324 -9.269566593780413 C 2.0405562892836544 -9.1950260075365 2.038617155420481 -9.117834871825359 2.019154443251901 -9.044178615636143 C 2.006847012086044 -8.953004088440327 2.0004927589335937 -8.861124574188985 2.000132055497547 -8.769123828733775 C 2.000736425331604 -8.693981750360546 1.9968887856720656 -8.618869853730942 1.988609355865672 -8.54418285186833 C 1.9791229953928724 -8.50325740145165 1.9776826579388822 -8.504151404009296 1.8978184294558538 -8.601498349175177 C 1.8382182589461318 -8.67391255634449 1.8066798353847426 -8.700384965412558 1.7794127573765417 -8.700384965412558 C 1.7262196051966108 -8.700384965412558 1.732626623526411 -8.670833214201489 1.8070275030460448 -8.572393599242929 C 1.9758946528235994 -8.349290294301532 1.9704809706689685 -8.359720324140735 1.954438591440095 -8.286114113561228 C 1.9463429016125215 -8.249211674653957 1.9259298432129415 -8.176847134293402 1.9089934614264357 -8.125044652758701 L 1.8782000399964054 -8.03107505058837 L 1.8178052005465517 -8.0392204072247 C 1.7845781054873893 -8.043640753204171 1.757360694287943 -8.041902414897638 1.757360694287943 -8.035247062524052 C 1.7672868809360207 -8.012017983648057 1.7806841914556357 -7.990431567073326 1.7970941412944244 -7.971226546034858 L 1.8368275883009055 -7.919175730456367 L 1.8030541583453947 -7.839708836443402 C 1.7566156921565752 -7.730690191219368 1.754579352997491 -7.729150520147867 1.668705440654728 -7.7350112035813225 L 1.592615889637312 -7.739977884457133 L 1.6006122458473666 -7.799578054966856 C 1.60771459949978 -7.852175205441687 1.6049332582093185 -7.859178225476579 1.5773681793485794 -7.859178225476579 C 1.5525347749695286 -7.859178225476579 1.5439920838631251 -7.845966854346924 1.5356480599917686 -7.796945714102677 C 1.5298867101758267 -7.762774949677102 1.5172713407512728 -7.732378862717143 1.5076359798521997 -7.729696855044206 C 1.4980006189531265 -7.727014847371269 1.4556348310824665 -7.713952476667887 1.4136167108731084 -7.700989439582022 L 1.3371794921943905 -7.677348038613166 L 1.2785229910510738 -7.733868866979886 C 1.1794763862662663 -7.84175164595918 1.0893653662240605 -7.957509009770084 1.0090805535383633 -8.0799968572151 C 0.9929885075007443 -8.109796942469963 0.9960181828349889 -8.123653982113474 1.030089613643047 -8.177741136851047 C 1.0454280906768316 -8.200094613031327 1.0587260866955175 -8.22378166843961 1.0698230606495283 -8.248516339331344 C 1.0698230606495283 -8.270419401993667 1.0064978794829487 -8.252489684031993 0.9899091653577358 -8.225917941346408 C 0.9621454192619592 -8.181217813464114 0.9523610579366124 -8.186979163280055 0.9097966028309149 -8.271015403698764 C 0.8787706642220378 -8.327445990510501 0.8428740952647581 -8.381058180999473 0.8025162959134209 -8.431240528752403 C 0.7391911147468322 -8.509018751267591 0.7335787653571637 -8.52292545771986 0.732486095564494 -8.603932022804324 C 0.7306484236404379 -8.749902773744388 0.7141093763239982 -8.828475665199706 0.6839616234078261 -8.834286681824404 C 0.6604195560564826 -8.83880636142139 0.6572408802959645 -8.825396323056703 0.6569925462521813 -8.720053021680767 C 0.659154490010294 -8.674367343945033 0.6552970532035685 -8.628595766943983 0.6455195134290521 -8.583916298874808 C 0.6385661602029216 -8.57368493627064 0.5962003723322616 -8.569910258805024 0.5335208596795311 -8.573982937123189 L 0.43259790428307343 -8.58073762311429 L 0.4188898650658315 -8.636414115732123 C 0.39902314156259083 -8.717867682095411 0.358048024337157 -8.711758664618165 0.3632630392567595 -8.628070091860762 C 0.3668390494873436 -8.571102262215218 0.36217036946408054 -8.561119233654841 0.320748250959826 -8.536683163745854 C 0.28960480342865474 -8.517335451187138 0.2668761926720249 -8.486983359443494 0.2570754021319261 -8.451653587151982 C 0.2521737112596354 -8.431796522091636 0.2452158863607876 -8.412504371235727 0.23631467607104403 -8.394089755801343 C 0.23432800372072365 -8.394089755801343 0.20273991335057065 -8.407698461401061 0.1660858084870887 -8.424336842335027 C 0.09739661197463306 -8.455527598235115 0.0001490004262735705 -8.46560996041301 0.0001490004262735705 -8.441620891782845 C 0.0001490004262735705 -8.434071536851615 0.017631717109123323 -8.423591840203654 0.039038111683863654 -8.41822782485778 C 0.06044450625861317 -8.412863809511904 0.11408465971735558 -8.39493409155023 0.15823845270330755 -8.378494377851297 L 0.2388973501264679 -8.34829695812637 L 0.25916140809977445 -8.246430333363504 C 0.29614003484241613 -8.094415872454535 0.3671809335452664 -7.95279262256617 0.46691766913491467 -7.832258815129686 C 0.5435038882399155 -7.745292232994251 0.5426098856822649 -7.7204588286151985 0.4619509882591045 -7.6897647408026915 C 0.4420842647558639 -7.68221538587146 0.4303132310801967 -7.669202681976837 0.4355282459997992 -7.660808991296718 C 0.45072628947977683 -7.635975586917667 0.5041181088947361 -7.643077940570075 0.5447952252676228 -7.674964031792777 L 0.5822439990712366 -7.704366782577574 L 0.7014443400906805 -7.628326898368918 C 0.8210420155801903 -7.552237347351506 1.0003888620056955 -7.478333135919449 1.0669423857415572 -7.477737134214353 C 1.0934147948096264 -7.477439133361804 1.1003184812270024 -7.470684447370702 1.0942094637497493 -7.450619056632428 C 1.069773483672888 -7.369609654086418 1.0565223030553232 -7.285640949668661 1.054823684404579 -7.201043342622964 C 1.0566025147299747 -7.1692824963657 1.0533846731079526 -7.137439271981107 1.0452876571230245 -7.106676405982569 C 1.0335166234473483 -7.094905372306899 0.9626917541582987 -7.12654312948581 0.9626917541582987 -7.143727845316114 C 0.9626917541582987 -7.150780532159764 0.9484373800447172 -7.156591548784462 0.9310043301706269 -7.156591548784462 C 0.8696161545456129 -7.156591548784462 0.9048299219551048 -7.104441399588454 0.9818134755301623 -7.081296666707178 C 1.0439466532865533 -7.062621946614133 1.054426349934513 -7.053830921463948 1.0544760167432679 -7.020156825125955 C 1.0656699112813177 -6.910979968101998 1.0837683115059422 -6.802621810203538 1.108662505098359 -6.695733230318025 C 1.1171058625872343 -6.669012487206171 1.1098545085085476 -6.6678204837959765 0.9905051670628301 -6.676512175328645 C 0.9354063460691969 -6.682874390080295 0.8796620988016284 -6.680864984951995 0.8251643607071139 -6.670552158277672 C 0.7719712085271829 -6.649344430937963 0.8023672954871474 -6.641199074301634 0.9781877984908235 -6.629229373390931 L 1.1234632141082708 -6.61929601163931 L 1.1727326883963065 -6.436671155835768 C 1.2002662290975166 -6.334697743798577 1.2347154318763818 -6.234718723209628 1.2758409833781312 -6.1374286330681915 C 1.297586372793271 -6.098302641886381 1.3126914023252132 -6.055840725535478 1.3205411112604226 -6.011771606910202 C 1.240583226045128 -6.003223286164795 1.1601247937541204 -6.000285756768031 1.0797564224011393 -6.002980581760017 C 0.8661891447413025 -6.002980581760017 0.8389220667331013 -6.006506925181842 0.732088761094428 -6.044998701969373 C 0.5880550156959333 -6.096999850739106 0.5279581770986267 -6.098787855854397 0.4972640892861151 -6.052001722004265 C 0.451024290332324 -5.981425186759001 0.49855542631383165 -5.924556690730974 0.6475061857793817 -5.872108540682418 L 0.7246884065894676 -5.844940796291736 L 0.6640452330958215 -5.835007434540115 C 0.5498115729521877 -5.816432048064584 0.5332725256357388 -5.8106210314398865 0.5237861651629484 -5.785787627060835 C 0.5095814578581309 -5.748835521344807 0.594263366790696 -5.6808416601549645 0.6934976506893805 -5.649650904254877 L 0.7779312255781624 -5.623029494760534 L 0.7240924048843825 -5.56342932425081 C 0.6630022301119156 -5.495783130722276 0.6621578943630291 -5.461364032252911 0.7208640623151004 -5.433202951687067 C 0.7534249005124465 -5.416869189816385 0.7919323756277715 -5.417574726968931 0.8238730236793973 -5.435090290419874 C 0.8441322815482369 -5.442783371512007 0.8648300203722766 -5.44926799962114 0.8858572010095239 -5.454510012644293 C 0.8858572010095147 -5.4533676760428555 0.8755265047878285 -5.41477656563781 0.863159469407067 -5.3684374330665 C 0.830131041582924 -5.245363080963923 0.833707051813508 -5.190183256433672 0.8777615111819412 -5.146128797065235 C 0.9703901095158063 -5.053500198731373 1.0615287035869263 -5.117024047132987 1.2592522692529275 -5.411697223494809 C 1.3306234734383258 -5.51818286147218 1.4135670440643537 -5.63281385608588 1.4435161297454975 -5.666438285615116 L 1.4981496193794093 -5.727528460387582 L 1.5245723616387237 -5.689384351261358 C 1.5390750697960882 -5.668424957965439 1.594801229222679 -5.5928320750356075 1.6483420490639118 -5.521411204041456 C 1.6863570056490533 -5.472843372087391 1.721673707614558 -5.4222227659368345 1.7541323517186609 -5.369778436902971 C 1.7590990325944802 -5.35666639939083 1.738735641003655 -5.328058317546163 1.7026278710365124 -5.29781123101248 C 1.6567357397440232 -5.2592697874161916 1.6470010452274404 -5.243177741378567 1.660808418062192 -5.229519368970089 C 1.6746157908969435 -5.21586099656161 1.6947805152527313 -5.220877344246179 1.7474769993450776 -5.251819766102477 C 1.7716235504541555 -5.266910034589151 1.7967625993446923 -5.280350714193989 1.8227222146135977 -5.292049881196539 C 1.8589086195933395 -5.258341307886038 1.8929786789775593 -5.2224300719722905 1.9247378398027437 -5.184521240235248 L 2.0202967798533344 -5.076992599273956 L 1.966557292777064 -4.928538507895989 C 1.9370055415659955 -4.846935941106426 1.9080001252512664 -4.768114715607317 1.901990441391532 -4.753363673406161 C 1.8939444183727225 -4.733198949050371 1.8989607660572874 -4.726642930294302 1.9222048325560839 -4.726642930294302 C 1.9466409024650686 -4.726642930294302 1.9624846144589045 -4.751476334673353 1.998195049955981 -4.845048602373618 C 2.023028454335032 -4.910161788655491 2.0478618587140827 -4.979148986020495 2.053970876191336 -4.997873372922299 C 2.0600798936685796 -5.016597759824103 2.0694669205238605 -5.031944803730357 2.0752282703398026 -5.031547469260293 C 2.1344159492917627 -4.984350787342306 2.190987550037767 -4.933963596642691 2.2446914218224423 -4.880610037444423 L 2.403625209848377 -4.7305169413774335 L 2.3706464488329977 -4.677075455153716 C 2.3574453156471495 -4.657670695961731 2.346497705479154 -4.636825246463781 2.3380153554789205 -4.614942277397331 C 2.3380153554789205 -4.592095545368602 2.3813744795247405 -4.608237258214985 2.4144029073488746 -4.643500692433239 C 2.4276943993937 -4.659991516042187 2.4447187902464953 -4.67308327260799 2.4640697161069856 -4.681694468368219 C 2.4923250348238053 -4.668691292878987 2.5184746510577445 -4.651531653544936 2.541649271387146 -4.630785989391166 C 2.5764160375178085 -4.602823576060352 2.6843916797579244 -4.5264856909991495 2.781092956409949 -4.460627502585906 C 2.877794233061974 -4.394769314172661 2.9625754756120575 -4.336063146220584 2.9698268296907355 -4.3297057946995485 C 2.974217546875001 -4.286699316320709 2.969789722626156 -4.243249178367395 2.956814125796116 -4.202012429382466 L 2.9309873852419046 -4.085841763697266 L 2.886287257359613 -4.117777521728725 C 2.8445174711940475 -4.147577606983586 2.796638667551238 -4.148670276776265 2.796638667551238 -4.120062194931599 C 2.813601780879672 -4.09594631313827 2.8349691330861204 -4.075253009897331 2.8596161810565155 -4.059071353776649 L 2.922593694561793 -4.010745548855016 L 2.925077034999698 -3.849527087626215 C 2.927610042246358 -3.6940699762133544 2.926616706071198 -3.6887059608674795 2.8967172871988183 -3.6981923213402768 C 2.8607598903672153 -3.705435093442455 2.8241243128985354 -3.708765600485062 2.7874503079309947 -3.7081256830918976 C 2.591365746954003 -3.7081256830918976 2.6617932817729955 -3.6286587890789335 2.905359311922722 -3.575515303707765 C 2.9407220797584968 -3.567717614732743 2.946284762339401 -3.5573869185110567 2.9550261206808326 -3.4827377049476294 C 2.9629231432733687 -3.4151411782278513 3.033251344474843 -3.1216600052762242 3.079789144281181 -2.961931548310167 C 3.0872391655948963 -2.936353141799744 3.0692101140157027 -2.9167844191490513 2.9816475301751666 -2.8549492422452145 C 2.9428607503904143 -2.830177489292076 2.906684067658202 -2.8015390021797755 2.8736718879350596 -2.76947266437252 C 2.8732745534649844 -2.764058982217887 2.8836052496866795 -2.7555162911114923 2.896866287625092 -2.7504502766181673 C 2.9233883635019158 -2.7405169148665465 2.9926735617194655 -2.7714593367228453 3.066577773151524 -2.8267384948706127 L 3.115002911690673 -2.862945598455269 L 3.179569763076205 -2.744688926802228 C 3.2150815313382535 -2.6797247409466296 3.2573479855913945 -2.6075092010123484 3.273589032055296 -2.584463801748589 L 3.303041449648846 -2.5423960147304765 L 3.237083927618088 -2.5423960147304765 C 3.047406384970896 -2.5423960147304765 1.8649390020580026 -2.5095165873326124 1.8215798780121732 -2.502662567723995 C 1.7321796222475903 -2.4885571940366926 1.7116175634217274 -2.4523997572607943 1.711816230656765 -2.3092103476111854 C 1.711816230656765 -2.1523128987443396 1.7246302673163563 -2.0726970043051027 1.750854342340633 -2.0626146421272074 C 1.7619797075024513 -2.0583432965740105 1.8738293608256895 -2.0500489395114077 1.9994863869836885 -2.044237922886709 L 2.227953707270965 -2.0335595590037165 L 2.245337090336301 -1.8332533192822895 C 2.2548234508091003 -1.7231420042655774 2.2768755138976897 -1.5298387845790424 2.2943085637717893 -1.4037844239509782 C 2.3348366797184026 -1.1107502522781747 2.331409669914092 -1.1324049808967072 2.3419887001795705 -1.1057835714023643 C 2.3469553810553805 -1.0931682019778055 2.362997760284245 -1.045041064291203 2.377450801632855 -0.9988509321461692 C 2.414670308499616 -0.8740573586010996 2.4776833280188617 -0.7584714465882296 2.5624099974480283 -0.659576961519571 C 2.678133661854407 -0.548174309475149 2.928355044377735 -0.4700980861074129 3.2399149357173043 -0.44839369068012047 C 3.477222947963522 -0.4318049765549148 4.188153648526997 -0.44129133702771206 4.301940307391811 -0.46249906436742094 C 4.514265914832695 -0.5022325113739043 4.572276747462163 -0.5270659157529547 4.661627336417982 -0.6161681706649897 C 4.775715548476325 -0.7437197085512857 4.859429265542393 -0.8954571884097895 4.906484703595424 -1.0599907737273924 C 4.916982111135295 -1.1034923582852532 4.933568974222541 -1.1452939285656196 4.95575417788346 -1.1841577956226494 C 4.964046213402449 -1.1900332531166669 4.966236153078682 -1.2013990400362449 4.96072085875927 -1.2099348693681051 C 4.956440531331537 -1.2398683883392891 4.958728522136397 -1.2703749324039766 4.967425877941618 -1.299335125132691 C 4.999894196012535 -1.5058594426428344 5.020044863770405 -1.7141327642094346 5.027771050582707 -1.9230509095169328 C 5.028665053140358 -2.11148678194518 5.01058633475241 -2.0987224120943475 5.277942766297281 -2.0990204129468957 C 5.49175837800091 -2.0990204129468957 5.57097693797008 -2.111039780666358 5.54306419144803 -2.138753859953378 C 5.537004840779541 -2.144862877430625 5.54306419144803 -2.1620475932609287 5.556623230238989 -2.176947635888359 C 5.576142286080928 -2.1985526976981333 5.580016297164059 -2.2306871229646257 5.575744951610862 -2.334441086460302 C 5.571125938396354 -2.445446404034662 5.5651659213453835 -2.469882473943648 5.535514836516796 -2.499533558772235 L 5.500748070386125 -2.5343003249029064 L 4.767864640351569 -2.538522003647345 C 4.078986002876683 -2.542545015156751 4.035875212874647 -2.5443826870808017 4.050973922737114 -2.5690670910335776 C 4.059814614696056 -2.5835697991909443 4.096468719559538 -2.6873237626866198 4.132427489100407 -2.799620417288689 L 4.197938009852344 -3.0039000017107638 L 4.341077752693188 -3.0496431325769766 C 4.4859558338405785 -3.096081598765802 4.554198029074205 -3.129954362338829 4.554198029074205 -3.1554334352317355 C 4.554198029074205 -3.183048180901239 4.508603898634272 -3.1861275230442425 4.459831092433812 -3.1618404535615294 C 4.4048002683298435 -3.1343747083182993 4.233300777688109 -3.086843572336795 4.223665416789037 -3.0964789332358666 C 4.22487240802601 -3.1366981899262836 4.230451356812655 -3.176666778248477 4.240303797723004 -3.215679274255317 C 4.2754569981231825 -3.411190749686692 4.2937354718746015 -3.609362638740712 4.294937287356925 -3.80800563550444 L 4.295533289062011 -3.9706644341872286 L 4.466834112468706 -4.064286368696251 C 4.530892894319507 -4.094228366047992 4.5901735959736785 -4.1334754708980865 4.642753949089911 -4.180755035234002 C 4.6526873108415305 -4.230421843992104 4.59398114288945 -4.220041480961661 4.446719054921673 -4.145988269103331 C 4.2741765612960245 -4.059419021437958 4.29662595885469 -4.048591657128692 4.2664285391297625 -4.23260718357746 C 4.254153193178671 -4.297371727562756 4.236033473344752 -4.360890488558566 4.212291717583435 -4.422384059842173 L 4.173601273560869 -4.51814166712779 L 4.250783494370964 -4.607194255231068 C 4.276429772216786 -4.639515878600712 4.305065131107914 -4.669348534727698 4.336309739052407 -4.696296510143105 C 4.36173216896609 -4.681826863488925 4.385555360031927 -4.664712789124368 4.407382942385258 -4.645239030739774 C 4.493008520684228 -4.575407497625884 4.538801318359199 -4.552560765597155 4.556780703129628 -4.570738817602622 C 4.566118063176154 -4.580076177649144 4.538205316654104 -4.612409270150669 4.479648149128297 -4.660139073367206 C 4.44503739011076 -4.685196906994909 4.413862268884688 -4.714685532643141 4.386920217176923 -4.7478506576340145 C 4.413363078743107 -4.792330946634671 4.444356012633542 -4.833943371299596 4.479399815084505 -4.872017679529271 L 4.572674081932228 -4.982973330294871 L 4.681494059921231 -4.992906692046492 C 4.724044729136078 -4.994280536501725 4.766043726343528 -5.0029491295253425 4.805661081816486 -5.018534765365672 C 4.829501150020376 -5.042325166760804 4.785248023416905 -5.0628375587778995 4.7094068064432815 -5.063234893247965 L 4.64320095036874 -5.063234893247965 L 4.713976152849026 -5.151095477941047 C 4.752914930915384 -5.199421282862681 4.820362457208888 -5.286189197763086 4.8639699152985 -5.344001363157517 L 4.943089141650142 -5.4493446645334505 L 5.077189525297016 -5.43941130278183 C 5.156656419309988 -5.433401618922099 5.2112899089439 -5.435040623611117 5.2112899089439 -5.443483981099994 C 5.2112899089439 -5.46399637311709 5.172400797686305 -5.476015740836551 5.071229508246046 -5.486545104293269 C 5.0409765504853805 -5.487811987920585 5.011012747530395 -5.492970102189717 4.982077586525255 -5.501892148199522 C 4.982077586525255 -5.505219824386315 5.022953370133171 -5.572170682592237 5.072918179743819 -5.650892574473829 C 5.122882989354468 -5.729614466355422 5.199667875694497 -5.86654585810151 5.2441196695330055 -5.955946113866094 L 5.324828233764921 -6.118257244887573 L 5.443581573505535 -6.118257244887573 C 5.5125191040617825 -6.118257244887573 5.562334913246158 -6.12461459640861 5.562334913246158 -6.133554621985069 C 5.562334913246158 -6.142494647561527 5.529654153083326 -6.148851999082565 5.489722038841816 -6.1490506663175974 C 5.454570977744732 -6.1486411106262935 5.419461574210697 -6.151601543515474 5.384875405553464 -6.157891358276539 L 5.352641646669452 -6.166533383000449 L 5.390239420899331 -6.279426039307616 L 5.427837195129218 -6.392219361997267 L 5.57405628011307 -6.396590041167979 C 5.663158535025097 -6.399272048840917 5.722460704682281 -6.407516739094762 5.725887714486582 -6.417698434890173 C 5.7297617255697135 -6.4295688021833595 5.68615426748011 -6.432598477517604 5.579817629929003 -6.427284128980487 L 5.42818486279052 -6.419933441284288 L 5.4410982330676205 -6.486834632681452 C 5.4494926234563765 -6.537925416604773 5.454025135318351 -6.589576128702161 5.454657271858598 -6.641348074727908 C 5.455302940372456 -6.724390978971455 5.457438613149059 -6.729357659847265 5.497321060581815 -6.737453349674836 C 5.59987990382298 -6.75644739167547 5.700527617361486 -6.784605480318614 5.798053587612112 -6.821588923711062 C 5.829443010747237 -6.852978346846182 5.784643549247436 -6.856057688989184 5.649947163895458 -6.8315222854626825 C 5.572317941806542 -6.817466578584138 5.494639052908872 -6.802020201060369 5.477255669843537 -6.797202520610833 C 5.449740257791552 -6.7895041652533275 5.443432573079271 -6.798543524447302 5.427241193424132 -6.868722725222501 L 5.4086658069485996 -6.94908362179311 L 5.481676015823016 -7.024477837487909 C 5.655857514137674 -7.204470352427273 5.874043805012019 -7.3037046363259615 6.191365046167539 -7.347312094415575 C 6.543353719836202 -7.395687566145967 6.547575398580644 -7.428169659073766 6.21177810456711 -7.503116873489743 Z M 0.6880839685347496 -5.736021484685217 C 0.6673729092826224 -5.736021484685217 0.6545092058142763 -5.763189229075899 0.6705019182343857 -5.773072924018762 C 0.6782002735918841 -5.777791270850782 0.6884316361960607 -5.771433919329745 0.6931996498368334 -5.758868216713944 C 0.6979676634776152 -5.746302514098144 0.6956829902747477 -5.736021484685217 0.6880839685347496 -5.736021484685217 Z M 0.9397953553208135 -5.629039178620265 C 0.9345700880557278 -5.620606322723182 0.9258020959886466 -5.614998461130274 0.9159552871169229 -5.613791468331527 C 0.9078036186975768 -5.614088212171611 0.9014058484337358 -5.620884459476114 0.9016015793858319 -5.629039178620265 C 0.9016015793858319 -5.637482536109142 0.912329610077584 -5.644336555717761 0.9253919807809676 -5.644336555717761 C 0.9384543514843513 -5.644336555717761 0.9449110366228972 -5.637482536109141 0.9399443557470962 -5.629039178620265 Z M 0.9782374652995874 -5.178461889566759 C 0.9696947741931932 -5.173147541029643 0.9626917541582987 -5.17950489255068 0.9626917541582987 -5.192666596871577 C 0.9626917541582987 -5.219486673600953 0.9718801137785511 -5.2234600183016004 0.9849921512906896 -5.202252290961891 C 0.9896697676943509 -5.193814406609594 0.9866511948710569 -5.183182815562863 0.9782374652995874 -5.178461889566759 Z M 5.079374864882374 -7.890666982229216 C 5.082652874260411 -7.890666982229216 5.089308226633995 -7.88033628600753 5.0942749075098055 -7.8677209165829725 C 5.099241588385606 -7.855105547158415 5.096410580286399 -7.8448245177454865 5.088215556841316 -7.8448245177454865 C 5.080020533396233 -7.8448245177454865 5.073315514213886 -7.855155213967173 5.073315514213886 -7.8677209165829725 C 5.073315514213886 -7.880286619198772 5.076047188695583 -7.890666982229216 5.079374864882374 -7.890666982229216 Z M 1.8941430856077508 -7.780158332742438 C 1.972913255992794 -7.928469674364441 2.036559063937664 -8.084331186264984 2.0841186291074987 -8.245387330379584 C 2.112329376482096 -8.353760307089763 2.1225607390862726 -8.464169622959025 2.137510448522458 -8.818790637491876 C 2.138362263349047 -8.916015029402397 2.146230058079901 -9.013051164416334 2.1610525158738016 -9.109142801491702 C 2.1814655742733815 -9.129009524994983 2.3179499647406514 -8.9657547246071 2.3452667095576074 -8.888522836988251 C 2.365941351432289 -8.809126205241817 2.3774398803157846 -8.727619966445964 2.3795368076006937 -8.645602475352373 C 2.3868874952968997 -8.496602049078065 2.383758486345136 -8.463424620827652 2.3531637321501435 -8.370498021641243 C 2.276367613064897 -8.148533005128423 2.157836798811911 -7.94329987574202 2.003956399771932 -7.765854291820105 C 1.9281648496070725 -7.6730766930599685 1.92945618663478 -7.674020362426373 1.8832660544897435 -7.692595748901903 L 1.8487972892116196 -7.706403121736655 Z M 1.1912087412543302 -7.575084079380233 C 1.1723780982203775 -7.556263484530082 1.1515045738277092 -7.539604646227874 1.1289762298804296 -7.525417270622131 C 0.9964413999908746 -7.566854788547362 0.87178921148322 -7.630213355473678 0.7602001748515158 -7.712859806875208 C 0.5201604881236095 -7.89265365457954 0.33619462848359594 -8.293713135301218 0.41963486719720855 -8.455080596956291 C 0.45157062522867264 -8.516766773433854 0.49994609695905773 -8.524316128365086 0.5692809619853717 -8.478473663881358 C 0.6386158270116947 -8.43263119939763 0.6943419864382763 -8.357832985407928 0.8046519686900241 -8.161549757195907 C 0.8989954497749613 -7.991916422312266 1.018868797160164 -7.837803119357557 1.1600676521630071 -7.7046151166213654 L 1.2478785700473263 -7.625992558357288 Z M 3.062654095259629 -4.5022482883251955 C 3.04710838411834 -4.474881876699481 3.027291327423854 -4.452978814037158 3.0185499690824313 -4.453525148933497 C 2.997491242168993 -4.454816485961207 2.63998955272818 -4.715219564279938 2.526848562377216 -4.811622840079416 C 2.179727235966835 -5.1074383530426735 1.9860266818102388 -5.311469603420958 1.7861177765588798 -5.591689738434171 C 1.547021759197379 -5.9269406975513625 1.420222396437937 -6.18928078141166 1.3448281807431433 -6.5046650170256095 C 1.2532922522019572 -6.887695446168095 1.2305945205995095 -7.166922245006147 1.2772813208321214 -7.346120091005381 C 1.3107567499350758 -7.475253793776448 1.3389674973096826 -7.517172580368285 1.4355694403441883 -7.581391764092512 C 1.5266044862810846 -7.644131463688362 1.6410342507399924 -7.662589054002742 1.7471789984925303 -7.631654574555712 C 1.9071061226936157 -7.58695444667342 2.150721819652106 -7.338272735221601 2.2644091448994 -7.103845397883358 C 2.3237113145565753 -6.981516047912152 2.427564611669768 -6.670403157851398 2.557443316572209 -6.225189884143768 C 2.753726544784229 -5.553744296542982 2.9487681027772967 -5.088763632949627 3.159107037867861 -4.791110448062319 L 3.2275975671452883 -4.694111170557745 L 3.159107037867861 -4.623037967224901 C 3.12313226630036 -4.585928924923929 3.0908309096132447 -4.545427481292035 3.062654095259629 -4.502099287898921 Z M 4.56562139508857 -0.7133661154045949 C 4.501965302411568 -0.6245486453953077 4.4029767325294396 -0.5676370101584105 4.29419228522553 -0.5573130022866373 C 4.011488809774416 -0.5135068769619906 3.248258959588661 -0.530294258322229 3.018351301847403 -0.5853747492349637 C 2.890012268016471 -0.6161681706649897 2.7507962030675035 -0.6791953509790201 2.7507962030675035 -0.7065617626047338 C 2.7507962030675035 -0.723001476303665 3.173609746025235 -0.7509638896344786 3.698240246937074 -0.7692412752574604 C 4.375745185206341 -0.7928826762263164 4.615089536611643 -0.7982466915721922 4.615089536611643 -0.7899523345095893 C 4.600823025254069 -0.7630545242857174 4.584272833984507 -0.7374316378021248 4.56562139508857 -0.7133661154045967 Z M 4.654624316383087 -0.9084076733976634 C 4.638482603536704 -0.9077123380750489 4.629492911151489 -0.9113876819231486 4.634757592879846 -0.9164536964164753 C 4.643678858221635 -0.9217757643162798 4.654686655115993 -0.9222242993340455 4.664011343238368 -0.9176456998266698 C 4.675782376914035 -0.9127286857596175 4.672206366683451 -0.909103008720276 4.654425649148059 -0.9084076733976634 Z M 4.717651496697119 -0.9829078865348162 C 4.715913158390591 -0.9824112184472362 4.260716856122575 -0.975855199691166 3.705888935485818 -0.9684051783774503 C 3.1510610148490605 -0.9609551570637347 2.6758986554602853 -0.9503761267982593 2.6496249136272536 -0.9448631110261108 C 2.6036831155260094 -0.9352774169357954 2.600951441044312 -0.9376117569474278 2.5770617060316665 -1.007939958148901 C 2.563353666814425 -1.0480707396254463 2.5522283016526157 -1.0824401712860539 2.5522283016526157 -1.0841785095925864 C 2.568256943790844 -1.0900433887519583 2.584931947501344 -1.0939620146239264 2.6018951104107173 -1.0958502096507416 C 2.629261522036428 -1.1004195560564884 2.6894080274424894 -1.1111475867482383 2.735598159587526 -1.1195909442371157 C 3.002010921765992 -1.168413417246331 4.768013640777834 -1.2054648565798747 4.768013640777834 -1.162254732960326 C 4.75647086578608 -1.1010362720849631 4.7395517222846095 -1.04095503067259 4.717452829462082 -0.98270921929978 Z M 3.0106032796811406 -1.381583360436104 C 3.0106032796811406 -1.389679050263675 3.0208843090940722 -1.3964834030635345 3.033499678518626 -1.3964834030635345 C 3.046115047943189 -1.3964834030635345 3.056445744164866 -1.3938013953905974 3.056445744164866 -1.3904737192038041 C 3.056445744164866 -1.3871460430170117 3.046115047943189 -1.3805403574521842 3.033499678518626 -1.3755736765763737 C 3.0208843090940722 -1.3706069957005642 3.0104046124461035 -1.3732890033735021 3.0104046124461035 -1.3813846932010723 Z M 3.9774670457751222 -1.6042893309074353 C 3.9863883111169103 -1.6096113988072398 3.99739610801127 -1.6100599338250055 4.006720796133644 -1.6054813343176297 C 4.018889164279377 -1.6005146534418193 4.015313154048793 -1.596938643211236 3.9975324365134006 -1.5962433078886225 C 3.9811920564319707 -1.5952003049047034 3.972202364046756 -1.5990246491790767 3.9772683785400846 -1.6040906636724035 Z M 4.5921931377741485 -1.4880689984134756 C 4.579577768349595 -1.4880689984134756 4.569247072127909 -1.4907510060864135 4.569247072127909 -1.494078682273205 C 4.569247072127909 -1.4974063584599975 4.579577768349595 -1.5040120440248268 4.5921931377741485 -1.5089787249006354 C 4.604808507198712 -1.5139454057764459 4.615089536611634 -1.5110647308684761 4.615089536611634 -1.5029193742321478 C 4.615089536611634 -1.4947740175958177 4.604560173154919 -1.4878703311784438 4.59199447053912 -1.4878703311784438 Z M 4.615089536611634 -1.3276452061248047 C 4.615089536611634 -1.2824980769636891 4.584097447946576 -1.2774320624703623 4.558568708244912 -1.318307846078282 C 4.537956982610303 -1.3512866070936607 4.546698340951726 -1.3658389820597847 4.587127123280829 -1.3658389820597847 C 4.6065965123139945 -1.3656403148247538 4.614890869376605 -1.3542666156191494 4.614890869376605 -1.3274465388897738 Z M 4.599841826322901 -1.595051304478428 C 4.555440997110219 -1.5786963413687545 4.506665595275635 -1.5786963413687545 4.462264766062953 -1.595051304478428 C 4.435444689333582 -1.603643662393579 4.455907414541916 -1.6072693394329205 4.531053296192927 -1.6072693394329205 C 4.606199177843938 -1.6072693394329205 4.626463235817235 -1.603444995158548 4.599643159087864 -1.5948526372433962 Z M 3.858664039225735 -1.793718539510838 C 3.7450263807871957 -1.799380555709261 3.897503483674575 -1.8039995689237642 4.259822853564934 -1.8059365744653304 C 4.641363278444675 -1.8079232468156539 4.844301859030279 -1.803651901262457 4.844301859030279 -1.793718539510838 C 4.84410319179525 -1.7770801585768732 4.187855647674441 -1.7770801585768732 3.858465371990707 -1.7935198722758061 Z M 4.859599236127775 -2.0195038521251707 C 4.859508761731347 -1.9803414663773946 4.8563201382301715 -1.9412476136598098 4.850063208846221 -1.902588184308617 L 4.840477514755902 -1.8548087142833038 L 4.3028839767581974 -1.8548087142833038 C 4.0073167978387385 -1.8548087142833038 3.5663252028755394 -1.844875352531683 3.3230075067695966 -1.8329553184297387 C 2.537725593495242 -1.7941655407896597 2.437547640230152 -1.79078819779411 2.4258759401719945 -1.8025592314697798 C 2.4157412772761475 -1.8429181696161203 2.411871732413632 -1.8845953454513058 2.4144029073488746 -1.9261302516599388 L 2.4144029073488746 -2.038178572218218 L 2.983634202525487 -2.0386255734970415 C 3.296535097701527 -2.0389235743495897 3.714431626592203 -2.045479593105658 3.9119565250231756 -2.053227615271922 C 4.109481423454149 -2.060975637438186 4.403657931728391 -2.0722003362175183 4.565224060618504 -2.078061019650974 L 4.859400568892737 -2.088739383533966 Z M 4.529066623842607 -2.405712957028176 C 4.948204822952226 -2.41450398217836 5.2949288148925415 -2.4178813251739113 5.299547828107049 -2.4133119787681654 C 5.3088099641264845 -2.383337105607316 5.313956165347134 -2.3522426884916054 5.314845205204546 -2.320882047669336 L 5.321848225239431 -2.236845807250627 L 5.148014394586076 -2.234114132768932 C 5.052455454535485 -2.2326241285061883 4.530705628531625 -2.2305381225383476 3.9885924109369313 -2.2293957859369113 C 3.4464791933422374 -2.228253449335476 2.837911785629219 -2.2194624241852914 2.6362148752625587 -2.2095290624336714 C 2.4345179648959077 -2.1995957006820497 2.205901644182357 -2.187278332110041 2.128173088475932 -2.182212317616714 C 1.9664082923507906 -2.1715836205424806 1.9658619574544511 -2.171931288203787 1.9833943409460602 -2.290386627091861 L 1.994668706534152 -2.3667741789618226 L 2.231430383884021 -2.3762108726258617 C 2.36160708963901 -2.381425887545463 2.760332230349058 -2.3865912356563053 3.117535918937333 -2.3877832390665006 C 3.4747396075256076 -2.388975242476695 4.109729757497941 -2.396822598260476 4.528867956607569 -2.4055142897931443 Z M 4.082065345019683 -3.298871178925131 C 4.054210780597672 -3.0906163956956405 4.004860089328291 -2.88580686582394 3.934803257051906 -2.687721097156677 C 3.9180096213798246 -2.6492832523743415 3.9053882523944075 -2.60915462538906 3.8971558160132638 -2.568024088049654 C 3.8971558160132638 -2.5452766896384427 3.871925077164147 -2.5424953483479893 3.6679434935946196 -2.5424953483479893 C 3.511642046432873 -2.5424953483479893 3.4386815043672203 -2.547760030076348 3.4386815043672203 -2.5592330628994704 C 3.4386815043672203 -2.568520756137236 3.403914738236549 -2.6626393587338386 3.361101949087068 -2.768528995006114 C 3.2349979216502396 -3.081429890182158 3.1298036207005757 -3.54362921248506 3.1780300920046964 -3.5733796309311634 C 3.191390463560627 -3.581624321185008 3.1893541244015426 -3.592153684641726 3.1703317366471886 -3.613113077937645 C 3.1473856710009485 -3.638443150404277 3.145498332268138 -3.671322577802141 3.1526503527293057 -3.898150893400395 C 3.1616897119232847 -4.1791160305449795 3.1919864652657304 -4.339192155172344 3.2657416762715057 -4.4951956014815435 C 3.312031142034061 -4.5929398811174895 3.4472241954736145 -4.733596283520435 3.482189628839314 -4.719987577920715 C 3.5034136846224317 -4.718650872582942 3.5240733470076866 -4.727149173422267 3.538213789118461 -4.743032977184475 C 3.5638916474973 -4.763714500778222 3.59433369338739 -4.777646474668472 3.626769709134157 -4.783561093131086 C 3.742046372261715 -4.802235813224132 3.893132804503859 -4.6680360959597405 3.9903804160522234 -4.460726836203421 C 4.06691696834846 -4.297372702198022 4.095177382531822 -4.132379563503605 4.1057564127973 -3.7879402447661654 C 4.116195021299216 -3.6244956684355856 4.108097441424592 -3.4603947133219988 4.081618343740862 -3.298771845307617 Z M 5.052455454535485 -5.942138741031341 C 4.882617106080744 -5.601587090240076 4.668009520505133 -5.285271410909024 4.414336295611388 -5.001598383579153 C 4.352501118707553 -4.92953184407115 4.253862836513964 -4.819470195863194 4.195057334944373 -4.75703901725426 L 4.0881246956881725 -4.643550359241996 L 4.034186541376873 -4.697438846744538 C 4.004588788999747 -4.727335099418796 3.9732259211184573 -4.75543065636798 3.940266606015301 -4.781574420780763 L 3.8997881568774426 -4.811374506035625 L 3.927601569781974 -4.979446986873044 C 3.9428989468794704 -5.0719265847806305 3.969917690843879 -5.2679118121401025 3.9877480751880445 -5.414975232872843 C 4.025017062350739 -5.711666925428283 4.091563932958566 -6.003940781137856 4.18641531022046 -6.2875217291351895 C 4.266017498498816 -6.516879064744719 4.395126080073308 -6.7259047391692945 4.564578392104646 -6.899764480696316 C 4.701013115763152 -7.031480857522802 4.79379071452329 -7.078167657755419 4.930076437755522 -7.0835316731012945 C 4.991341533662416 -7.093716974236891 5.054191361579803 -7.08033787478751 5.105996274376717 -7.046082899297685 C 5.193558858217253 -6.994826752659323 5.236719315028045 -6.913273852678519 5.254500032563447 -6.765515096623164 C 5.284151117392034 -6.5216510656208815 5.2290706264792925 -6.297753091739356 5.052008453256664 -5.94194007379631 Z M 5.299945162577106 -7.525119269769582 C 5.299035517977412 -7.5077250820792525 5.290122261792058 -7.491732573038854 5.275807093520678 -7.481809812532517 C 5.250179020201495 -7.473366455043639 5.252463693404362 -7.494226514722042 5.281369776101582 -7.5314766212906195 C 5.304464842174095 -7.561475373780513 5.3048621766441615 -7.561326373354238 5.299945162577106 -7.525119269769582 Z M 5.791646569282322 -7.4663137681999885 C 5.762194151688772 -7.4663137681999885 5.750224450778067 -7.469492443960507 5.76492582617046 -7.473366455043639 C 5.782534417794861 -7.477190619710955 5.800758720769782 -7.477190619710955 5.818367312394183 -7.473366455043639 C 5.833019020977821 -7.469492443960507 5.820949986449607 -7.4663137681999885 5.791547235664812 -7.4663137681999885 Z" fill="#114b1e" transform="matrix(1,0,0,1,0,0)" fill-rule="nonzero"></path></g><g clip-path="url(#SvgjsClipPath1000d0aa5507-c488-4cd7-aa88-133f975ea774)"><path d=" M 4.867496258720311 -6.846173994046322 C 4.840775515608449 -6.835892964633395 4.768162641204108 -6.692206886896205 4.7678646403515605 -6.649096096894171 C 4.767615210041523 -6.641702133491432 4.770530419081005 -6.634552624287461 4.775878910890932 -6.629441211015207 C 4.781227402700859 -6.624329797742955 4.788501651184231 -6.621741509775263 4.79587672049113 -6.6223256869735545 C 4.8157434439943705 -6.6223256869735545 4.838192841553035 -6.652721773933513 4.871866937891027 -6.725185647911585 C 4.91924907344626 -6.8272012731007266 4.91790806960979 -6.865494382653225 4.867496258720311 -6.846173994046322 Z" fill="#114b1e" transform="matrix(1,0,0,1,0,0)" fill-rule="nonzero"></path></g><g clip-path="url(#SvgjsClipPath1000d0aa5507-c488-4cd7-aa88-133f975ea774)"><path d=" M 4.579677101967104 -5.687745346572342 C 4.555439699293148 -5.674831976295235 4.55370136098662 -5.669169960096811 4.570836410008163 -5.6582929289787876 L 4.59199447053912 -5.644932557422857 C 4.59199447053912 -5.644932557422857 4.642455948237345 -5.658044594934997 4.704142124714915 -5.674086974163863 C 4.820958458913973 -5.704433394315064 4.840874849225977 -5.713820421170346 4.82369013339567 -5.731104470618165 C 4.811124430779871 -5.7436205064252075 4.621099220471368 -5.709896743278455 4.579677101967104 -5.687745346572342 Z" fill="#114b1e" transform="matrix(1,0,0,1,0,0)" fill-rule="nonzero"></path></g><g clip-path="url(#SvgjsClipPath1000d0aa5507-c488-4cd7-aa88-133f975ea774)"><path d=" M 4.663564341959547 -6.19976047805962 C 4.66932569177548 -6.250668957036673 4.665402013883594 -6.260403651553262 4.633764256704686 -6.272323685655207 C 4.575008421943851 -6.2946737495963525 4.538304650271605 -6.265022664767766 4.538304650271605 -6.195141464845116 C 4.538304650271605 -6.162013703403461 4.546698340951726 -6.132511619001148 4.557376704834723 -6.128190606639194 C 4.62144688813267 -6.102413532893739 4.655021650853153 -6.124813263643643 4.663564341959547 -6.19976047805962 Z" fill="#114b1e" transform="matrix(1,0,0,1,0,0)" fill-rule="nonzero"></path></g><g clip-path="url(#SvgjsClipPath1000d0aa5507-c488-4cd7-aa88-133f975ea774)"><path d=" M 4.1810512948745755 -5.635197862906269 C 4.160091901578656 -5.627151839887457 4.16014156838741 -5.622383826246679 4.1816969633884336 -5.589405065231299 C 4.211497048643294 -5.544307602878941 4.263448530604273 -5.539738256473196 4.263448530604273 -5.582650379240198 C 4.260557763270096 -5.601122746360112 4.24987142337833 -5.61746341135364 4.234107114213046 -5.627516840586228 C 4.218342805047771 -5.637570269818818 4.19901952115692 -5.64036774946785 4.1810512948745755 -5.63519786290627 Z" fill="#114b1e" transform="matrix(1,0,0,1,0,0)" fill-rule="nonzero"></path></g><g clip-path="url(#SvgjsClipPath1000d0aa5507-c488-4cd7-aa88-133f975ea774)"><path d=" M 4.421587649690066 -5.353984391717894 C 4.383542874181358 -5.353984391717894 4.339687082047953 -5.28892087224478 4.339687082047953 -5.232499377495576 C 4.339687082047953 -5.174736878909902 4.395164907430751 -5.1957459390145795 4.436140024656194 -5.269004481932781 C 4.477115141881629 -5.342263024850982 4.47547613719261 -5.353984391717894 4.421587649690066 -5.353984391717894 Z" fill="#114b1e" transform="matrix(1,0,0,1,0,0)" fill-rule="nonzero"></path></g><g clip-path="url(#SvgjsClipPath1000d0aa5507-c488-4cd7-aa88-133f975ea774)"><path d=" M 3.919356879528136 -3.698192321340276 C 3.8850007574832675 -3.7008817666809923 3.85077457420718 -3.6915792655854416 3.8225066024498378 -3.671868912698481 C 3.7465163850499406 -3.631241463134354 3.727295330060549 -3.602335380437138 3.769760451548728 -3.593196687625647 C 3.823667127853265 -3.5889307238666692 3.876459710526547 -3.610161724210558 3.912403526301987 -3.650561851741255 C 3.9447862856122904 -3.6851299506368944 3.9453326205086205 -3.688258959588654 3.919356879528136 -3.698192321340276 Z" fill="#114b1e" transform="matrix(1,0,0,1,0,0)" fill-rule="nonzero"></path></g><g clip-path="url(#SvgjsClipPath1000d0aa5507-c488-4cd7-aa88-133f975ea774)"><path d=" M 2.080443285259396 -5.445122985789012 C 2.0528782063986477 -5.459427026711344 2.040312503782849 -5.459576027137619 2.026952132226918 -5.4458679879203835 C 2.013591760670987 -5.432159948703147 2.0224324526299284 -5.417061238840684 2.062414233680211 -5.383287808885174 C 2.1181900599155568 -5.336253340991251 2.1699428746414977 -5.324730641359372 2.1699428746414977 -5.359249073446252 C 2.1699428746414977 -5.382642140371319 2.1333881033955344 -5.417657240545781 2.080443285259396 -5.445122985789012 Z" fill="#114b1e" transform="matrix(1,0,0,1,0,0)" fill-rule="nonzero"></path></g><g clip-path="url(#SvgjsClipPath1000d0aa5507-c488-4cd7-aa88-133f975ea774)"><path d=" M 0.5583045972498272 -8.215140243845898 C 0.5329248579744369 -8.233169295425089 0.5042671093210188 -8.228599949019344 0.5042671093210188 -8.206349218695715 C 0.5130819645906775 -8.178537507630425 0.527367952609024 -8.152768692363288 0.5462852295303676 -8.13055766853085 C 0.588204016122207 -8.075278510383082 0.6417945027722037 -8.055312453262324 0.6417945027722037 -8.094946566651291 C 0.6243617197438216 -8.141314391897483 0.5956706411174442 -8.1826186216868 0.5583045972498272 -8.215140243845898 Z" fill="#114b1e" transform="matrix(1,0,0,1,0,0)" fill-rule="nonzero"></path></g><g clip-path="url(#SvgjsClipPath1000d0aa5507-c488-4cd7-aa88-133f975ea774)"><path d=" M 2.2687798240701254 -8.54775886209891 C 2.286361874370489 -8.54775886209891 2.292172890995186 -8.56504291154673 2.292172890995186 -8.617640062021561 C 2.292172890995186 -8.675948895503574 2.2877525450157155 -8.686726593004082 2.2654521478833245 -8.682206913407093 C 2.237986402640095 -8.676991898487493 2.2212486880886178 -8.61033904113412 2.2370924000824535 -8.569115589864895 C 2.242796982650529 -8.556603148787481 2.255041083648127 -8.54835085501167 2.2687798240701254 -8.54775886209891 Z" fill="#114b1e" transform="matrix(1,0,0,1,0,0)" fill-rule="nonzero"></path></g><g clip-path="url(#SvgjsClipPath1000d0aa5507-c488-4cd7-aa88-133f975ea774)"><path d=" M 2.1606551814037354 -8.036985400830586 C 2.1739658861509024 -8.071752166961257 2.172922883166978 -8.073937506546613 2.1423777957807495 -8.073937506546613 C 2.114117381597388 -8.073937506546613 2.078257945674038 -8.046670428538416 2.078257945674038 -8.025015699919884 C 2.078257945674038 -8.002218634699913 2.151367488165964 -8.012847331774147 2.1606551814037354 -8.036985400830586 Z" fill="#114b1e" transform="matrix(1,0,0,1,0,0)" fill-rule="nonzero"></path></g><g clip-path="url(#SvgjsClipPath1000d0aa5507-c488-4cd7-aa88-133f975ea774)"><path d=" M 0.836587726721479 -7.902885017183708 C 0.8067876414666181 -7.908547033382133 0.7866229171108302 -7.872141262562444 0.8001819559017894 -7.836927495152949 C 0.8084871387475792 -7.822310392646212 0.8242048329999563 -7.813495481392753 0.8410080727009497 -7.814031096315464 C 0.8669838136814434 -7.814031096315464 0.872149161792282 -7.822027452525518 0.868225483900396 -7.855900216098544 C 0.8654441426099346 -7.881478622608967 0.8527294395678621 -7.9000540090844975 0.836587726721479 -7.902885017183708 Z" fill="#114b1e" transform="matrix(1,0,0,1,0,0)" fill-rule="nonzero"></path></g><g clip-path="url(#SvgjsClipPath1000d0aa5507-c488-4cd7-aa88-133f975ea774)"><path d=" M 1.6090059365274871 -7.1036963974570835 C 1.605876474984277 -7.138882865908101 1.5983513053755993 -7.173538691356448 1.5866062057775867 -7.206854359247661 C 1.5730471669866184 -7.233326768315731 1.5058479747369076 -7.2442037994337545 1.4922392691371935 -7.222102069536399 C 1.4968333855807077 -7.177618023165583 1.507322224191882 -7.13394236557289 1.5234300250372714 -7.092223364633959 C 1.5576007894628576 -6.986135061126655 1.5655474788641484 -6.973817692554645 1.5999665773335174 -6.973817692554645 C 1.6302136638672085 -6.973817692554645 1.6361240141094147 -6.97943004194431 1.6278793238555769 -7.000538435666504 C 1.6186251166017478 -7.034315814648618 1.612310444282312 -7.0688304841419765 1.6090059365274871 -7.103696397457082 Z" fill="#114b1e" transform="matrix(1,0,0,1,0,0)" fill-rule="nonzero"></path></g><g clip-path="url(#SvgjsClipPath1000d0aa5507-c488-4cd7-aa88-133f975ea774)"><path d=" M 1.9314428589850912 -7.288854260507289 C 1.9051194503432953 -7.295410279263358 1.8867427311027996 -7.291635601797743 1.8778027055263395 -7.277679228536716 C 1.8664115730870254 -7.219969288283902 1.8733581843560336 -7.160141598729581 1.8976694290295801 -7.106577072365052 C 1.9115264686730864 -7.0802536637232585 1.983742008607362 -7.073995645819737 1.9750999838834584 -7.099872053182709 C 1.971789084498202 -7.131494607288116 1.9705116762100094 -7.163297096748592 1.971275639609082 -7.195083325571992 C 1.9712756396090911 -7.272613214043389 1.9683452978923561 -7.279566567269524 1.9314428589850912 -7.288854260507289 Z" fill="#114b1e" transform="matrix(1,0,0,1,0,0)" fill-rule="nonzero"></path></g><g clip-path="url(#SvgjsClipPath1000d0aa5507-c488-4cd7-aa88-133f975ea774)"><path d=" M 2.720052448446237 -4.9948933643968125 C 2.6894576942512534 -4.9948933643968125 2.6808653363360953 -4.9863010064816615 2.6768919916354452 -4.95153424035099 C 2.6740031374276945 -4.9298754106240334 2.6751312080778287 -4.907869614508693 2.680219667822246 -4.886619721304149 C 2.684724792478098 -4.8747988545605585 2.6955001985982876 -4.86652042312063 2.7080827475355416 -4.865213326729408 C 2.749604199657315 -4.865709994816989 2.7680802525153294 -4.891834736223751 2.7632129052570287 -4.942991549244596 C 2.7589912265125958 -4.986847341378001 2.7523358741390034 -4.9948933643968125 2.720052448446237 -4.9948933643968125 Z" fill="#114b1e" transform="matrix(1,0,0,1,0,0)" fill-rule="nonzero"></path></g><g clip-path="url(#SvgjsClipPath1000d0aa5507-c488-4cd7-aa88-133f975ea774)"><path d=" M 2.2934642280228936 -6.454253206136136 C 2.2569094567769303 -6.454253206136136 2.2310330494139645 -6.403245393541566 2.2310330494139645 -6.330980186798525 C 2.2310330494139645 -6.301776103248762 2.2388804051977456 -6.286280058916233 2.253432780163874 -6.286280058916233 C 2.2810475258333773 -6.286280058916233 2.301460584232957 -6.322735496544681 2.3154666243027373 -6.397384710108109 C 2.3251019852018104 -6.448591189937712 2.3229166456164525 -6.454253206136136 2.2934642280228936 -6.454253206136136 Z" fill="#114b1e" transform="matrix(1,0,0,1,0,0)" fill-rule="nonzero"></path></g><g clip-path="url(#SvgjsClipPath1000d0aa5507-c488-4cd7-aa88-133f975ea774)"><path d=" M 2.382218815273627 -5.857357498481262 C 2.3465580465853146 -5.8383351107269075 2.34859438574439 -5.798204329250361 2.390165504674918 -5.698423710455334 C 2.4077972217840458 -5.656306256628462 2.4216542614275616 -5.64408822167397 2.4518516811524793 -5.64408822167397 C 2.488406452398442 -5.64408822167397 2.4908401260275927 -5.64905490254978 2.4908401260275927 -5.719234103324979 C 2.4917427784035033 -5.752737168219333 2.4885740245608265 -5.78622589304085 2.481403432363548 -5.8189650553112475 C 2.4742629853367313 -5.837978549933551 2.459349909064855 -5.853042563651417 2.4404092822961605 -5.860374113221875 C 2.421468655527457 -5.867705662792334 2.4002998089584713 -5.8666082621721065 2.382218815273627 -5.857357498481262 Z" fill="#114b1e" transform="matrix(1,0,0,1,0,0)" fill-rule="nonzero"></path></g><g clip-path="url(#SvgjsClipPath1000d0aa5507-c488-4cd7-aa88-133f975ea774)"><path d=" M 1.7858197757063328 -6.377815987457416 C 1.731186286072421 -6.377815987457416 1.742957319748088 -6.346774231983602 1.81403052308093 -6.302123770910068 C 1.885103726413781 -6.257473309836534 1.9842883435037109 -6.237556919524535 1.962732948502697 -6.272323685655207 C 1.9120338075114118 -6.319800277609404 1.8516905575208615 -6.355782608597586 1.7858197757063234 -6.377815987457416 Z" fill="#114b1e" transform="matrix(1,0,0,1,0,0)" fill-rule="nonzero"></path></g><g clip-path="url(#SvgjsClipPath1000d0aa5507-c488-4cd7-aa88-133f975ea774)"><path d=" M 1.8604689892697588 -6.086818154943694 C 1.7981868110871033 -6.135143959865328 1.7581553632280749 -6.150590337389098 1.7324776231001282 -6.136236629658006 C 1.7117168970392462 -6.12461459640861 1.7145479051384531 -6.1180585776525405 1.7518476785157935 -6.091933836245779 C 1.7727819038454615 -6.0768146753441314 1.7950793410608774 -6.063678974076289 1.8184508690604007 -6.052697057326878 C 1.8310662384849636 -6.047730376451067 1.8425889381168477 -6.0435086977066295 1.8439299419533188 -6.042763695575258 C 1.853162460257321 -6.044282583369736 1.8621602835939666 -6.046986938435665 1.8707003518739354 -6.050809718594071 C 1.8911134102735063 -6.058806074804124 1.8895240723932518 -6.064319090576274 1.8604689892697588 -6.086818154943694 Z" fill="#114b1e" transform="matrix(1,0,0,1,0,0)" fill-rule="nonzero"></path></g></g></g><defs><clipPath id="SvgjsClipPath1002"><path d=" M 0 -9.342378135419791 h 6.459565813461284 v 8.902378135419792 h -6.459565813461284 Z"></path></clipPath><clipPath id="SvgjsClipPath1000d0aa5507-c488-4cd7-aa88-133f975ea774"><path d=" M 5.737246956148996e-16 -9.342378135419791 L 6.459565813461284 -9.342378135419791 L 6.459565813461284 -0.4399999999999995 L 1.1474493912297993e-15 -0.4399999999999995 Z"></path></clipPath></defs></svg>